<?xml version="1.0" encoding="utf-8"?>
<!-- Generator: Adobe Illustrator 21.0.0, SVG Export Plug-In . SVG Version: 6.00 Build 0)  -->
<svg version="1.1" xmlns="http://www.w3.org/2000/svg" xmlns:xlink="http://www.w3.org/1999/xlink" x="0px" y="0px" width="16px"
     height="16px" viewBox="0 0 16 16" enable-background="new 0 0 16 16" xml:space="preserve">
<g id="icon_Name">
</g>
    <g id="icons">
	<path fill="#000000" d="M14.8040771,12.9188843l-3.0664062-3.0682983c-0.2617188-0.2597656-0.6835938-0.2597656-0.9434204,0
		L10.7767334,9.868103L10.677002,9.9685059L9.7113037,9.0028076L9.788147,8.9265137
		c1.7283325-2.1623535,1.6157227-5.3104858-0.3875732-7.3139038c-2.1501465-2.149292-5.6375122-2.151001-7.7875977,0
		c-2.151001,2.151062-2.1502075,5.6374512,0,7.7883911c1.9915161,1.9907227,5.116272,2.1147461,7.2776489,0.4164429
		l0.1109619-0.1101074l0.9707642,0.9707642l-0.1342773,0.1351929c-0.2427979,0.2609253-0.2421875,0.6680298,0.0128784,0.9240112
		l3.0674438,3.0664062c0.2606812,0.2617188,0.6825562,0.2617188,0.9432373,0l0.9424438-0.9414062
		C15.0648804,13.6005859,15.0657349,13.1787109,14.8040771,12.9188843z M8.6821289,8.6817627
		c-1.7578125,1.7576904-4.6074219,1.7576904-6.3641968,0c-1.7567749-1.7578125-1.7577515-4.6074829,0-6.3652954
		C4.074707,0.560791,6.9243164,0.560791,8.6821289,2.3186035C10.4387817,4.0742798,10.4398193,6.9239502,8.6821289,8.6817627z
		 M13.3900146,13.8613281l-2.5947266-2.59375l0.4716797-0.4736328l2.5947266,2.5966797L13.3900146,13.8613281z"/>
</g>
</svg>